<mxfile host="app.diagrams.net" agent="Mozilla/5.0 (Macintosh; Intel Mac OS X 10_15_7) AppleWebKit/537.36 (KHTML, like Gecko) Chrome/128.0.0.0 Safari/537.36" version="24.7.14">
  <diagram name="Page-1" id="pRKH1LCJUlviUy7YoTUQ">
    <mxGraphModel grid="1" page="1" gridSize="10" guides="1" tooltips="1" connect="1" arrows="1" fold="1" pageScale="1" pageWidth="850" pageHeight="1100" math="0" shadow="0">
      <root>
        <mxCell id="0" />
        <mxCell id="1" parent="0" />
        <mxCell id="P0G7P5rQNQgdewiW1TWq-1" value="Provedor de Cloud - Servidor VPS/Cloud" style="whiteSpace=wrap;strokeWidth=2;" vertex="1" parent="1">
          <mxGeometry x="20" y="347" width="440" height="408" as="geometry" />
        </mxCell>
        <mxCell id="P0G7P5rQNQgdewiW1TWq-2" value="Servidor" style="whiteSpace=wrap;strokeWidth=2;" vertex="1" parent="1">
          <mxGeometry x="40" y="372" width="400" height="358" as="geometry" />
        </mxCell>
        <mxCell id="P0G7P5rQNQgdewiW1TWq-3" value="Cliente" style="whiteSpace=wrap;strokeWidth=2;" vertex="1" parent="1">
          <mxGeometry x="66" y="20" width="310" height="255" as="geometry" />
        </mxCell>
        <mxCell id="P0G7P5rQNQgdewiW1TWq-4" value="Dispositivo do Usuário - Navegador Web" style="whiteSpace=wrap;strokeWidth=2;" vertex="1" parent="1">
          <mxGeometry x="107" y="45" width="228" height="66" as="geometry" />
        </mxCell>
        <mxCell id="P0G7P5rQNQgdewiW1TWq-5" value="Nginx - Servidor de Proxy Reverso" style="whiteSpace=wrap;strokeWidth=2;" vertex="1" parent="1">
          <mxGeometry x="101" y="184" width="240" height="66" as="geometry" />
        </mxCell>
        <mxCell id="P0G7P5rQNQgdewiW1TWq-6" value="Node.js - Servidor Backend" style="rounded=1;arcSize=40;strokeWidth=2" vertex="1" parent="1">
          <mxGeometry x="109" y="397" width="224" height="49" as="geometry" />
        </mxCell>
        <mxCell id="P0G7P5rQNQgdewiW1TWq-7" value="PostgreSQL - Banco de Dados" style="rounded=1;arcSize=40;strokeWidth=2" vertex="1" parent="1">
          <mxGeometry x="126" y="639" width="189" height="66" as="geometry" />
        </mxCell>
        <mxCell id="P0G7P5rQNQgdewiW1TWq-8" value="Sistema de Navegação" style="rounded=1;arcSize=40;strokeWidth=2" vertex="1" parent="1">
          <mxGeometry x="207" y="518" width="189" height="49" as="geometry" />
        </mxCell>
        <mxCell id="P0G7P5rQNQgdewiW1TWq-9" value="Acessa via Internet" style="curved=1;startArrow=none;endArrow=block;exitX=0.5;exitY=1;entryX=0.5;entryY=-0.01;rounded=0;" edge="1" parent="1" source="P0G7P5rQNQgdewiW1TWq-4" target="P0G7P5rQNQgdewiW1TWq-5">
          <mxGeometry relative="1" as="geometry">
            <Array as="points" />
          </mxGeometry>
        </mxCell>
        <mxCell id="P0G7P5rQNQgdewiW1TWq-10" value="Redireciona requisições" style="curved=1;startArrow=none;endArrow=block;exitX=0.5;exitY=1;entryX=0.5;entryY=0.01;rounded=0;" edge="1" parent="1" source="P0G7P5rQNQgdewiW1TWq-5" target="P0G7P5rQNQgdewiW1TWq-6">
          <mxGeometry relative="1" as="geometry">
            <Array as="points" />
          </mxGeometry>
        </mxCell>
        <mxCell id="P0G7P5rQNQgdewiW1TWq-11" value="Conexão" style="curved=1;startArrow=none;endArrow=block;exitX=0.35;exitY=0.99;entryX=0.3;entryY=0;rounded=0;" edge="1" parent="1" source="P0G7P5rQNQgdewiW1TWq-6" target="P0G7P5rQNQgdewiW1TWq-7">
          <mxGeometry relative="1" as="geometry">
            <Array as="points">
              <mxPoint x="140" y="482" />
              <mxPoint x="140" y="603" />
            </Array>
          </mxGeometry>
        </mxCell>
        <mxCell id="P0G7P5rQNQgdewiW1TWq-12" value="Conexão" style="curved=1;startArrow=none;endArrow=block;exitX=0.64;exitY=0.99;entryX=0.5;entryY=0.01;rounded=0;" edge="1" parent="1" source="P0G7P5rQNQgdewiW1TWq-6" target="P0G7P5rQNQgdewiW1TWq-8">
          <mxGeometry relative="1" as="geometry">
            <Array as="points">
              <mxPoint x="302" y="482" />
            </Array>
          </mxGeometry>
        </mxCell>
        <mxCell id="P0G7P5rQNQgdewiW1TWq-13" value="Consulta" style="curved=1;startArrow=none;endArrow=block;exitX=0.5;exitY=1;entryX=0.7;entryY=0;rounded=0;" edge="1" parent="1" source="P0G7P5rQNQgdewiW1TWq-8" target="P0G7P5rQNQgdewiW1TWq-7">
          <mxGeometry relative="1" as="geometry">
            <Array as="points">
              <mxPoint x="302" y="603" />
            </Array>
          </mxGeometry>
        </mxCell>
      </root>
    </mxGraphModel>
  </diagram>
</mxfile>
